PathFileType	4	(X/Y/Z)	/Users/niels/Desktop/University/Third Semester/Perception and Action/Exam/Gymnastics Motion Tracking/Code for Gym Tracking/Analyzed Data/Webcam_Backflip/id3_1_trajectory_Sports2D/id3_1_trajectory_Sports2D_px_person00.trc
DataRate	CameraRate	NumFrames	NumMarkers	Units	OrigDataRate	OrigDataStartFrame	OrigNumFrames
29.708737864077673	29.708737864077673	11	22	m	29.708737864077673	12	103
Frame#	Time	Hip			RHip			RKnee			RAnkle			RBigToe			RSmallToe			RHeel			LHip			LKnee			LAnkle			LBigToe			LSmallToe			LHeel			Neck			Head			Nose			RShoulder			RElbow			RWrist			LShoulder			LElbow			LWrist		
		X1	Y1	Z1	X2	Y2	Z2	X3	Y3	Z3	X4	Y4	Z4	X5	Y5	Z5	X6	Y6	Z6	X7	Y7	Z7	X8	Y8	Z8	X9	Y9	Z9	X10	Y10	Z10	X11	Y11	Z11	X12	Y12	Z12	X13	Y13	Z13	X14	Y14	Z14	X15	Y15	Z15	X16	Y16	Z16	X17	Y17	Z17	X18	Y18	Z18	X19	Y19	Z19	X20	Y20	Z20	X21	Y21	Z21	X22	Y22	Z22
12	0.403921568627451	0.9226464072543332	-0.39434731050206695	0.0	0.9220038833248106	-0.39625265369417867	0.0	0.9896305513137331	-0.30140957854126077	0.0	1.071900011717683	-0.23648009927478167	0.0	1.0802649782106344	-0.18140810866714915	0.0	1.0914307992440389	-0.19167491850972998	0.0	1.090579238066355	-0.2284181575101904	0.0	0.9306748218877453	-0.39170344771091054	0.0	0.9945872837996103	-0.29839880645040884	0.0	1.0671783687335703	-0.23979393178253383	0.0	1.0781226790569376	-0.18356836722017358	0.0	1.0879771419567967	-0.18760653532988203	0.0	1.098620231578439	-0.22883632181405095	0.0	0.8126235067572801	-0.3057022583802474	0.0	0.7788421562941211	-0.22990420623447297	0.0	0.8198962810012207	-0.25936012108889384	0.0	0.7976397105721211	-0.3092402161806112	0.0	0.8472544345465911	-0.2633884283969927	0.0	0.8763950938428342	-0.20122739755744065	0.0	0.8294141678471899	-0.3174371333568424	0.0	0.8746597562993833	-0.2989790869525369	0.0	0.9178227643518698	-0.26464929563933015	0.0
13	0.43758169934640523	0.9350103171665431	-0.3773048450895848	0.0	0.9342395274232184	-0.3773819623167453	0.0	0.9659447690969102	-0.26885038037221926	0.0	1.0204391084632596	-0.17449690316467073	0.0	1.0092434384501265	-0.12128841810829334	0.0	1.024639123029857	-0.12741683962523717	0.0	1.0350597163412256	-0.1604102809151348	0.0	0.9415421315620901	-0.37477221074608913	0.0	0.9700750761701487	-0.2677550104067591	0.0	1.0171828352653094	-0.18159795540309706	0.0	1.0079675019946752	-0.12570203247481185	0.0	1.0182304446429937	-0.1252667084674608	0.0	1.043968581066137	-0.1618837345214932	0.0	0.8180763949313461	-0.3100972148574811	0.0	0.769315441709232	-0.2466042473517799	0.0	0.8134499387878732	-0.2662474480978077	0.0	0.8069403459266642	-0.3109970564371791	0.0	0.864096359710352	-0.2605200867374033	0.0	0.8940991894488362	-0.19730636297350904	0.0	0.8323573602388581	-0.32284109998111327	0.0	0.8851238002075593	-0.2903168741211299	0.0	0.9261186193637445	-0.24555137169762847	0.0
14	0.47124183006535947	0.9491143369855414	-0.3572454784397525	0.0	0.9476780180019297	-0.35567718873643356	0.0	0.9391217203348652	-0.24765867506628242	0.0	0.9572179498484378	-0.13865892232622554	0.0	0.9289845452925795	-0.09506224725096765	0.0	0.9452192333020375	-0.09685561249496762	0.0	0.9661077348464532	-0.12097085442150667	0.0	0.9539616771534827	-0.3556827071312937	0.0	0.9432769477514854	-0.24778338653518436	0.0	0.9565675304114325	-0.14730123175959203	0.0	0.9289038938158005	-0.1009556617860492	0.0	0.9383189594985507	-0.09482103830492494	0.0	0.9755670335610336	-0.12274768156390749	0.0	0.8259907501088006	-0.31952783581449706	0.0	0.7649043330997727	-0.27537871061908986	0.0	0.8086649221428296	-0.2825912803856258	0.0	0.8188299248518097	-0.3169197376648637	0.0	0.8749579356977776	-0.25761807064007547	0.0	0.8963105266491836	-0.19461926249115732	0.0	0.8391975395740687	-0.3325714601334437	0.0	0.891350941800565	-0.2831913837019958	0.0	0.9226985800061391	-0.23045531613548137	0.0
15	0.5049019607843137	0.9617609875233283	-0.3340037997988448	0.0	0.9591338780889669	-0.3313794017329015	0.0	0.911619283642194	-0.23736705742225805	0.0	0.8910795694489514	-0.1292279639955589	0.0	0.8500379499909935	-0.10073805391831807	0.0	0.8641115721568257	-0.09894621104958713	0.0	0.8939486295376144	-0.11008459108996269	0.0	0.9653573712743586	-0.33419925097936154	0.0	0.9168252007591812	-0.23740307657736048	0.0	0.8937625793592194	-0.13737929933139703	0.0	0.8517180133794796	-0.10730915327086553	0.0	0.8602334947012614	-0.09566996580851858	0.0	0.9035299905293726	-0.11191680677056261	0.0	0.8371692313929467	-0.33332044708805614	0.0	0.7696434732183783	-0.3150855401799672	0.0	0.8085449676989899	-0.3082228091506098	0.0	0.8328042265120557	-0.32658108870306424	0.0	0.8787499699391065	-0.2566101449581156	0.0	0.8842009402036497	-0.1961228684907496	0.0	0.8510844597712911	-0.34525335822342945	0.0	0.8935706111533046	-0.2792470379162722	0.0	0.9084975760500074	-0.22287435234008582	0.0
16	0.538562091503268	0.9698420325823521	-0.30897378737972875	0.0	0.9657073306556868	-0.3061644635287982	0.0	0.8854736428365013	-0.23662158552304885	0.0	0.8297322392737936	-0.14333615994314172	0.0	0.7812754680038768	-0.13285811497214295	0.0	0.7915217484931638	-0.12855641289906758	0.0	0.8271434378844992	-0.12420715650277689	0.0	0.9732397704676673	-0.31100268047049456	0.0	0.8923816608330084	-0.23508793103160963	0.0	0.8359635811836404	-0.14943069723379365	0.0	0.7852712773741819	-0.13934698550403807	0.0	0.7939053150940154	-0.12288755881584856	0.0	0.8368830990149234	-0.125778289346315	0.0	0.8530962056481619	-0.35001940438602736	0.0	0.7876725976607858	-0.3615400183957409	0.0	0.8170203060570789	-0.340823991276234	0.0	0.8493299961843971	-0.3389530866206847	0.0	0.8764026361961343	-0.2598206551173417	0.0	0.8624296595816099	-0.2048759819280406	0.0	0.8691163341179232	-0.3588692037659942	0.0	0.8937543044901279	-0.28034274553754696	0.0	0.8873925846328143	-0.22541368894803412	0.0
17	0.5722222222222222	0.9710829400645531	-0.28506683998303	0.0	0.9655819328564801	-0.2828595653392576	0.0	0.8619951276388289	-0.24413839673004606	0.0	0.7785954792148925	-0.17612775510584447	0.0	0.728740808035412	-0.18399531844402342	0.0	0.7348450704804421	-0.17815545155365323	0.0	0.771484440269435	-0.15788265394903447	0.0	0.9753461441445493	-0.2879147046457293	0.0	0.8706016700323234	-0.2399470382144256	0.0	0.7879344789317827	-0.1790316755879708	0.0	0.7352101803007672	-0.1894078690096307	0.0	0.7452393738546569	-0.16911725665660132	0.0	0.7819125572969134	-0.15849755890382294	0.0	0.8749754364289715	-0.3671581394760372	0.0	0.8216056796323888	-0.40751613573990203	0.0	0.8372311101737387	-0.37557110120013953	0.0	0.8692949881436324	-0.3522864054621398	0.0	0.8706379102497134	-0.2692779641135423	0.0	0.8376200854307464	-0.2235177345855428	0.0	0.8930822972342656	-0.3708883894135714	0.0	0.8942134725432999	-0.2877916378572584	0.0	0.8649509014106954	-0.23952765998738534	0.0
18	0.6058823529411764	0.9647964512247382	-0.26601511027074054	0.0	0.9584846648933599	-0.26488689125837417	0.0	0.8420005981349111	-0.25916831386805117	0.0	0.7405412467526883	-0.22221185481040265	0.0	0.6952280893499742	-0.24653984349582106	0.0	0.6975359128542019	-0.23979246944517343	0.0	0.7299691507258986	-0.20553821244426118	0.0	0.970341628064138	-0.2678587555106873	0.0	0.8518572782383133	-0.2518527354349493	0.0	0.7519281431450912	-0.22120390089910966	0.0	0.7036651701264576	-0.24925090506012076	0.0	0.7153914290496662	-0.22704552886177795	0.0	0.7415788166923639	-0.20435716746600316	0.0	0.9025487468342983	-0.38174560499890176	0.0	0.8704908356470975	-0.44458953478145463	0.0	0.8695223771022087	-0.4064084029600855	0.0	0.8929549040375916	-0.3644679007003996	0.0	0.8652418441999911	-0.2860690116605925	0.0	0.816920782790495	-0.2537702094864138	0.0	0.9210458761192996	-0.37898192098038697	0.0	0.8965517203845028	-0.3020258401379081	0.0	0.8473879205313603	-0.26596980778710516	0.0
19	0.6395424836601307	0.9521370523248152	-0.25509013605555253	0.0	0.9455803410908541	-0.2552387799101211	0.0	0.8260563494868032	-0.2812164060673731	0.0	0.7162668896436782	-0.2769182133254063	0.0	0.6807236599159942	-0.31423338492055297	0.0	0.6795086644810445	-0.3068320511745367	0.0	0.7033925029982212	-0.2625788420879803	0.0	0.9586330573493136	-0.25408363561432606	0.0	0.8368709864602313	-0.2707776818736753	0.0	0.7283001095962102	-0.27188092610493914	0.0	0.6902289104878532	-0.3123155297325992	0.0	0.7022030026091399	-0.29108351596129145	0.0	0.7162060770226698	-0.2590213248137997	0.0	0.9336304347372555	-0.3913827090578998	0.0	0.9289855349208203	-0.4662002441777743	0.0	0.9108074281645694	-0.42846357965860876	0.0	0.919152176003658	-0.37368233371906917	0.0	0.8639867771767518	-0.3098578181365932	0.0	0.8066428640354257	-0.2954912136348838	0.0	0.9500801311438165	-0.38204110162276056	0.0	0.9017927457393192	-0.322595608250345	0.0	0.8404587041416932	-0.30436870949130346	0.0
20	0.6732026143790849	0.9355374088825866	-0.25413839049348186	0.0	0.9290084630289636	-0.2556005385608863	0.0	0.8145944890690773	-0.3096670764582566	0.0	0.7050060925388153	-0.336691931969236	0.0	0.6831859116823106	-0.3828062536134596	0.0	0.678406639820851	-0.3748149969932624	0.0	0.6910483679058192	-0.3254862952206789	0.0	0.9422974206826289	-0.24923493396735585	0.0	0.8268579471479389	-0.29632235621790776	0.0	0.7163561744479446	-0.3283289564911092	0.0	0.6930320667472941	-0.37529938409679436	0.0	0.7026354220479287	-0.3576058932314111	0.0	0.7046697985934837	-0.3195391319388412	0.0	0.964619080288532	-0.39520081975975413	0.0	0.9887682062828308	-0.470146622720386	0.0	0.9556739428375151	-0.43977584393245456	0.0	0.9453379191776256	-0.3790267421841395	0.0	0.8696428961381674	-0.33882642907942145	0.0	0.8111767171152282	-0.34584929453023355	0.0	0.9771721442706008	-0.3806543087292419	0.0	0.9112458502701054	-0.3481883261689049	0.0	0.8481249411919867	-0.3520086526326878	0.0
21	0.7068627450980391	0.9176678182802255	-0.2635357572435242	0.0	0.9111616786693904	-0.2662732455956014	0.0	0.8079384436102685	-0.3437247882016482	0.0	0.7053529385165486	-0.3988884606876249	0.0	0.6993519400266879	-0.44979300339972844	0.0	0.6909572013306231	-0.4413910246469586	0.0	0.6913495324946711	-0.39152870678834084	0.0	0.9240471472534643	-0.2549547286007213	0.0	0.8230761430043302	-0.32767863406878045	0.0	0.7151449956734092	-0.3884815032455518	0.0	0.7091233394182667	-0.4373598935501637	0.0	0.7140718990621486	-0.42418530301943114	0.0	0.7053588937828998	-0.383662156083472	0.0	0.9915719436567364	-0.3940793196650131	0.0	1.0415132124315554	-0.45904266743600913	0.0	0.9980461976502001	-0.44129672470638903	0.0	0.9684650986856046	-0.38083824483905365	0.0	0.8835428885634872	-0.37009885426709704	0.0	0.8326707992715557	-0.3994344592977513	0.0	0.9996309824409544	-0.3766816279210972	0.0	0.9263014236428181	-0.37646173146421363	0.0	0.8716602768670708	-0.40308703583193584	0.0
22	0.7405228758169934	0.9005786533594108	-0.28282343112840075	0.0	0.8940034214514551	-0.28677233293912696	0.0	0.8061190198145326	-0.382583072151699	0.0	0.7156922507685506	-0.46162844041147016	0.0	0.7254864207859618	-0.5140293207333725	0.0	0.7138084490564316	-0.5057177589329093	0.0	0.7022681737661667	-0.45869371745973275	0.0	0.9060889729511349	-0.27196854752745697	0.0	0.82571598979174	-0.364095928912602	0.0	0.7236795457442541	-0.45033019979448385	0.0	0.7348369251036281	-0.49821474373120667	0.0	0.7341860406593804	-0.48897708170159976	0.0	0.7164398221213265	-0.44929664475423314	0.0	1.0113601837931263	-0.39024162985604993	0.0	1.0814953184467375	-0.43876430107055275	0.0	1.0326923179061462	-0.43585912426113743	0.0	0.9861901947583429	-0.3806130199120967	0.0	0.9055458289598977	-0.4002971688510491	0.0	0.8708572573236927	-0.4491541817283127	0.0	1.0153557413830403	-0.3724356923669065	0.0	0.9470715602281982	-0.4041085580295346	0.0	0.9093217557282144	-0.4497086034826945	0.0
